<?xml version="1.0" encoding="utf-8"?>
<svg viewBox="0 0 21 21.002" width="21" height="21.002" xmlns="http://www.w3.org/2000/svg">
  <defs>
    <style>.cls-1{fill:#e7352c;}.cls-2{fill:#333;}</style>
  </defs>
  <path class="cls-1" d="M6.93,15.65a1.48,1.48,0,1,1-1.48-1.48,1.48,1.48,0,0,1,1.48,1.48"/>
  <path class="cls-1" d="M19.84,14.11a15.34,15.34,0,0,0-13-13A9.73,9.73,0,0,0,4.69,2.66V4.09A12.18,12.18,0,0,1,16.86,16.25h1.43a10.25,10.25,0,0,0,1.55-2.14"/>
  <path class="cls-1" d="M21,9.62A9.62,9.62,0,0,0,11.33,0c-.34,0-.67,0-1,.05l-.22.64A16.55,16.55,0,0,1,20.25,10.82l.64-.23c0-.32.06-.64.06-1"/>
  <path class="cls-1" d="M11.44,21A11.44,11.44,0,0,1,0,9.61,11.36,11.36,0,0,1,3.35,1.52L4,2.13a10.56,10.56,0,0,0,0,15,10.56,10.56,0,0,0,15,0l.61.61A11.35,11.35,0,0,1,11.44,21"/>
  <path class="cls-1" d="M11.31,16.91A6.65,6.65,0,0,0,8.7,11,6.51,6.51,0,0,0,5.35,9.64.61.61,0,0,1,4.82,9a.59.59,0,0,1,.65-.54,7.85,7.85,0,0,1,7,8.58,6.85,6.85,0,0,1-.26,1.35l1.74.49a9.66,9.66,0,0,0,1.5-.57,10.64,10.64,0,0,0,.19-2.05A11,11,0,0,0,6.31,5.4a4.84,4.84,0,0,0-1.75,0A3.81,3.81,0,0,0,2.67,6.57a3.74,3.74,0,0,0,1.67,6,8.66,8.66,0,0,0,.94.17h0a3.51,3.51,0,0,1,2.92,3.46,3.47,3.47,0,0,1-.56,1.89l1.2.77a8.91,8.91,0,0,0,1.8.3,6.58,6.58,0,0,0,.66-2.3"/>
</svg>